<svg width="21" height="21" viewBox="0 0 21 21" fill="none" xmlns="http://www.w3.org/2000/svg">
<g clip-path="url(#clip0_33_8)">
<path d="M20.9996 10.5642C20.9996 4.72879 16.2982 -0.00146484 10.4996 -0.00146484C4.69837 -0.000152344 -0.00300026 4.72879 -0.00300026 10.5655C-0.00300026 15.8378 3.83737 20.2084 8.85637 21.0012V13.6184H6.192V10.5655H8.859V8.23579C8.859 5.58847 10.4274 4.12635 12.8254 4.12635C13.9751 4.12635 15.1761 4.33241 15.1761 4.33241V6.93116H13.8517C12.5484 6.93116 12.1416 7.74622 12.1416 8.58229V10.5642H15.0527L14.5881 13.617H12.1402V20.9998C17.1592 20.2071 20.9996 15.8365 20.9996 10.5642Z" fill="#111111"/>
</g>
<defs>
<clipPath id="clip0_33_8">
<rect width="21" height="21" fill="white"/>
</clipPath>
</defs>
</svg>
